<svg xmlns="http://www.w3.org/2000/svg" width="24" height="24" viewBox="0 0 24 24" fill="none" aria-hidden="true">
  <path fill="#f5efe6" d="M12 .5C5.73.5.66 5.57.66 11.84c0 5.02 3.26 9.28 7.78 10.78.57.11.78-.25.78-.56v-1.98c-3.17.69-3.83-1.33-3.83-1.33-.53-1.34-1.3-1.69-1.3-1.69-1.06-.72.08-.71.08-.71 1.17.08 1.79 1.2 1.79 1.2 1.05 1.77 2.74 1.26 3.4.96.11-.76.42-1.26.76-1.55-2.55-.29-5.23-1.27-5.23-5.66 0-1.25.45-2.28 1.2-3.08-.12-.3-.52-1.49.12-3.11 0 0 .98-.31 3.19 1.18.91-.25 1.87-.38 2.83-.39.96.01 1.92.14 2.84.39 2.21-1.49 3.18-1.18 3.18-1.18.65 1.62.25 2.81.12 3.11.74.8 1.2 1.83 1.2 3.08 0 4.4-2.69 5.37-5.26 5.65.42.36.81 1.06.81 2.16v3.01c0 .31.21.68.78.56 4.52-1.5 7.78-5.76 7.78-10.78C23.34 5.57 18.27.5 12 .5Z"/>
</svg>
